# xmcd
#
# Track frame offsets: 
#        150
#        18465
#        35830
#        52802
#        69527
#        87282
#        110927
#        126730
#        145212
#        161185
#        178022
#        197492
#        203567
#        223200
#
# Disc length: 3242 seconds
#
# Revision: 1
# Processed by: cddbd v1.5.2PL0 Copyright (c) Steve Scherf et al.
# Submitted via: ExactAudioCopy v1.1
#
DISCID=db0ca80e
DTITLE=Down Low - The Best Of
DYEAR=2001
DGENRE=Hip-Hop
TTITLE0=Moonlight
TTITLE1=Wouldn't It Be Good
TTITLE2=So Long Goodbye
TTITLE3=Once Upon A Time
TTITLE4=I Wanna Know What Love Is
TTITLE5=Johnny B
TTITLE6=Don't You
TTITLE7=H.I.V.
TTITLE8=La Serenissima
TTITLE9=Yesterday
TTITLE10=I Wonder Why
TTITLE11=Share Your Thoughts
TTITLE12=Thank You
TTITLE13=She Can't Love You
EXTD=
EXTT0=
EXTT1=
EXTT2=
EXTT3=
EXTT4=
EXTT5=
EXTT6=
EXTT7=
EXTT8=
EXTT9=
EXTT10=
EXTT11=
EXTT12=
EXTT13=
PLAYORDER=
